<svg width="139" height="139" viewBox="0 0 139 139" fill="none" xmlns="http://www.w3.org/2000/svg">
<rect width="139" height="139" rx="10" fill="#A855F7"/>
<path d="M81.04 116.6C77.84 116.6 75.42 115.7 73.78 113.9C72.14 112.06 71.32 109.44 71.32 106.04V103.64H77.56V106.52C77.56 109.24 78.7 110.6 80.98 110.6C82.1 110.6 82.94 110.28 83.5 109.64C84.1 108.96 84.4 107.88 84.4 106.4C84.4 104.64 84 103.1 83.2 101.78C82.4 100.42 80.92 98.8 78.76 96.92C76.04 94.52 74.14 92.36 73.06 90.44C71.98 88.48 71.44 86.28 71.44 83.84C71.44 80.52 72.28 77.96 73.96 76.16C75.64 74.32 78.08 73.4 81.28 73.4C84.44 73.4 86.82 74.32 88.42 76.16C90.06 77.96 90.88 80.56 90.88 83.96V85.7H84.64V83.54C84.64 82.1 84.36 81.06 83.8 80.42C83.24 79.74 82.42 79.4 81.34 79.4C79.14 79.4 78.04 80.74 78.04 83.42C78.04 84.94 78.44 86.36 79.24 87.68C80.08 89 81.58 90.6 83.74 92.48C86.5 94.88 88.4 97.06 89.44 99.02C90.48 100.98 91 103.28 91 105.92C91 109.36 90.14 112 88.42 113.84C86.74 115.68 84.28 116.6 81.04 116.6ZM94.7842 74H104.744C108.144 74 110.624 74.8 112.184 76.4C113.744 77.96 114.524 80.38 114.524 83.66V85.34C114.524 87.5 114.164 89.26 113.444 90.62C112.764 91.98 111.704 92.96 110.264 93.56V93.68C113.544 94.8 115.184 97.72 115.184 102.44V106.04C115.184 109.28 114.324 111.76 112.604 113.48C110.924 115.16 108.444 116 105.164 116H94.7842V74ZM103.964 91.1C105.284 91.1 106.264 90.76 106.904 90.08C107.584 89.4 107.924 88.26 107.924 86.66V84.32C107.924 82.8 107.644 81.7 107.084 81.02C106.564 80.34 105.724 80 104.564 80H101.384V91.1H103.964ZM105.164 110C106.324 110 107.184 109.7 107.744 109.1C108.304 108.46 108.584 107.38 108.584 105.86V102.2C108.584 100.28 108.244 98.96 107.564 98.24C106.924 97.48 105.844 97.1 104.324 97.1H101.384V110H105.164Z" fill="white"/>
</svg>
